@startuml cerrarSesion

skinparam linetype polyline

state SISTEMA_DISPONIBLE
state SISTEMA_DISPONIBLE2 as "SISTEMA_DISPONIBLE"

state cerrarSesion as "cerrarSesion()" {

    state " " as SolicitandoCierre
    state " " as ConfirmandoCierre  
    state c <<choice>>

    [*] -[#green]-> SolicitandoCierre 
    note on link
    <b>Administrador institucional o Docente</b> solicita cerrar sesión
    end note    
    
    SolicitandoCierre -[#green]-> ConfirmandoCierre
    note on link
    <b>Sistema</b> presenta confirmación
    ¿Desea cerrar la sesión activa?
    end note
    
    ConfirmandoCierre -[#green]-> c
    note on link
    <b>Sistema</b> permite confirmar y cancelar
    end note
    

}

    SISTEMA_DISPONIBLE -[#green]-> cerrarSesion

    c -[#blue]-> SISTEMA_DISPONIBLE2
    note on link
    <b>Administrador institucional o Docente</b> solicita cancelar cierre
    end note
    
    c -[#green]-> SESION_CERRADA
    note on link
    Administrador institucional o Docente → UsuarioNoRegistrado
    iniciarSesion()
    end note


'cerrarSesion -[#green]-> SESION_CERRADA
'note on link
'Administrador → UsuarioNoRegistrado
'iniciarSesion()
'end note

@enduml