@startuml exportarPreguntas

skinparam linetype polyline

state PREGUNTAS_ABIERTO
state PREGUNTAS_CONTEXTUALES_ABIERTO
state PREGUNTAS_CONTEXTUALES_ABIERTO2 as "PREGUNTAS_CONTEXTUALES_ABIERTO"
state PREGUNTAS_ABIERTO2 as "PREGUNTAS_ABIERTO"

state exportarPreguntas as "exportarPreguntas()" {

    state " " as RequiringExport
    state " " as ProvidingPreguntas
    state " " as ProvidingConfirmation
    state c <<choice>>

    [*] -[#green]-> RequiringExport
    note on link
    <b>Docente</b> solicita exportar preguntas
    end note    

    RequiringExport -[#green]-> ProvidingPreguntas
    note on link
    <b>Sistema</b> permite introducir
    • preguntas a exportar
    end note

    ProvidingPreguntas -[#green]-> ProvidingConfirmation
    note on link
    <b>Docente</b> introduce preguntas a exportar
    end note

    ProvidingConfirmation -[#green]-> c
    note on link
    <b>Docente</b> solicita
    • confirmar exportación
    • cancelar exportación
    end note

    c -[#red]-> ProvidingPreguntas
    note on link
    Docente cancela exportación
    end note

    c -[#red]-> ProvidingPreguntas
    note on link
    Docente confirma exportación: error en la exportación
    end note

    c -[#green]-> [*]
    note on link
    Docente confirma exportación: exportación exitosa
    end note
}

' Conexiones existentes
PREGUNTAS_ABIERTO -[#green]-> exportarPreguntas
exportarPreguntas -[#green]-> PREGUNTAS_ABIERTO2

' Conexiones NUEVAS (Contextuales)
PREGUNTAS_CONTEXTUALES_ABIERTO -[#green]-> exportarPreguntas
exportarPreguntas -[#green]-> PREGUNTAS_CONTEXTUALES_ABIERTO2

@enduml